<?xml version="1.0" encoding="UTF-8"?>
<svg width="48px" height="42px" viewBox="0 0 48 42" version="1.1" xmlns="http://www.w3.org/2000/svg" xmlns:xlink="http://www.w3.org/1999/xlink">
    <!-- Generator: sketchtool 57.1 (101010) - https://sketch.com -->
    <title>AD7770C7-7ABB-4265-95B8-547509FE9A27</title>
    <desc>Created with sketchtool.</desc>
    <g id="Inner-Page" stroke="none" stroke-width="1" fill="none" fill-rule="evenodd" opacity="0.200000003">
        <g id="Testimonial" transform="translate(-857.000000, -803.000000)" fill="#00D09C" fill-rule="nonzero">
            <g transform="translate(295.000000, 536.000000)" id="testimonial-copy">
                <g transform="translate(0.000000, 206.000000)">
                    <g id="testimonial-content" transform="translate(0.000000, 0.525170)">
                        <g id="Content" transform="translate(55.000000, 60.474830)">
                            <path d="M552.972973,0 L552.972973,6 C551.081072,7.02703216 549.662167,8.878365 548.716216,11.5540541 C547.770266,14.2297431 547.297297,17.7567349 547.297297,22.1351351 L547.297297,24 L555,24 L555,42 L537,42 L537,28.5405405 C537,20.3783376 538.324311,13.9189427 540.972973,9.16216216 C543.621635,4.40538162 547.621595,1.35135811 552.972973,0 Z M522.972973,0 L522.972973,6 C521.081072,7.02703216 519.662167,8.878365 518.716216,11.5540541 C517.770266,14.2297431 517.297297,17.7567349 517.297297,22.1351351 L517.297297,24 L525,24 L525,42 L507,42 L507,28.5405405 C507,20.3783376 508.324311,13.9189427 510.972973,9.16216216 C513.621635,4.40538162 517.621595,1.35135811 522.972973,0 Z" id="“" transform="translate(531.000000, 21.000000) rotate(-180.000000) translate(-531.000000, -21.000000) "></path>
                        </g>
                    </g>
                </g>
            </g>
        </g>
    </g>
</svg>