<svg width="1920" height="1080" viewBox="0 0 1920 1080" fill="none" xmlns="http://www.w3.org/2000/svg">
<g clip-path="url(#clip0_228_60)">
<path d="M956.44 988.51C882.99 955.34 813.82 921.33 751.07 887.63C648.19 832.29 560.4 753.74 504.88 697.59C429.97 621.85 258.91 394.97 183.86 189.12L192.31 186.34C266.88 390.87 436.81 616.31 511.22 691.49C566.3 747.19 653.32 825.06 755.26 879.84C817.89 913.52 886.79 947.38 960.05 980.46L956.45 988.49L956.44 988.51ZM452.61 639.56C425.91 590.29 368.07 558.78 345.34 547.97C293.68 523.44 211.13 502.09 130.97 524.67C152.3 571.95 171.63 608.66 213.66 641.54C262.47 679.7 319.37 686.4 375.14 672.68C401.07 666.29 429.92 653.72 452.61 639.57V639.56ZM304.59 423.65C284.69 371.49 231.36 332.82 210.19 319.14C162.11 288.16 82.81 256.24 0 268.02C14.83 317.47 29.11 356.24 66.56 394.2C109.96 438.27 165.71 452.42 223.06 446.14C249.68 443.2 280.16 434.63 304.59 423.64V423.65ZM677.24 836.88C636.23 798.06 571.76 786.12 546.95 783.04C490.58 775.83 406.25 781.44 338.44 828.35C373.78 866.88 403.82 895.94 453.88 914.15C512.02 935.31 567.55 923.76 615.36 893.02C637.61 878.73 660.57 857.58 677.24 836.87V836.88ZM900.68 962.29C853.68 930.94 788.47 930.19 763.59 931.31C707.11 933.85 625.52 953.84 567.39 1011.93C608.78 1044.03 643.34 1067.63 695.57 1077.1C756.25 1088.06 808.59 1067.13 850 1028.49C869.17 1010.53 887.95 985.64 900.61 962.28H900.67L900.68 962.29ZM422.44 450.21C450.49 401.14 458.65 345.7 433.63 289.69C412.09 241.48 380.84 213.68 339.69 181.29C296.54 251.07 296.19 334.56 307 389.69C311.75 413.95 327.82 476.74 369.59 514.74C390.53 495.83 408.33 474.04 422.38 450.13L422.44 450.22V450.21ZM600.78 670.94C628.12 621.46 635.47 565.85 609.65 510.19C587.46 462.28 555.77 434.9 514.21 403.07C472.09 473.49 472.93 557.01 484.55 612.08C489.65 636.28 506.62 698.86 548.9 736.31C569.56 717.06 587.03 694.99 600.72 670.84L600.78 670.93V670.94ZM809.96 820.41C828.6 766.95 826.58 710.6 792.04 659.58C762.3 615.63 726.7 593.58 680.62 568.7C650.94 645.3 665.61 728.01 686.1 780.7C695.12 803.89 722.14 863.22 769.85 893.54C786.95 871.13 800.44 846.45 809.89 820.33L809.95 820.42L809.96 820.41ZM117.46 195.56C125.68 211.34 159.87 280.33 230.97 285.78C242.06 268.36 251.43 207.49 248.73 183.08C234.26 51.81 152.06 12.21 130.43 0.09C120.1 7.12 59.67 84.5 117.42 195.47L117.45 195.56H117.46ZM963.54 988.6C1036.99 955.43 1106.16 921.42 1168.91 887.72C1271.79 832.38 1359.58 753.83 1415.1 697.68C1490.01 621.94 1661.07 395.06 1736.12 189.21L1727.67 186.43C1653.1 390.96 1483.17 616.4 1408.76 691.58C1353.68 747.28 1266.66 825.15 1164.72 879.93C1102.09 913.61 1033.19 947.47 959.93 980.55L963.53 988.58L963.54 988.6ZM1544.81 672.68C1600.57 686.4 1657.48 679.7 1706.29 641.54C1748.32 608.7 1767.65 571.95 1788.98 524.67C1708.81 502.1 1626.27 523.45 1574.61 547.97C1551.89 558.78 1494.05 590.27 1467.34 639.56C1490.03 653.71 1518.89 666.28 1544.81 672.67V672.68ZM1696.94 446.19C1754.29 452.42 1810.04 438.32 1853.44 394.25C1890.84 356.28 1905.12 317.51 1920 268.07C1837.19 256.29 1757.89 288.21 1709.81 319.19C1688.64 332.84 1635.33 371.44 1615.41 423.7C1639.8 434.66 1670.27 443.23 1696.94 446.21V446.19ZM1304.59 893.03C1352.4 923.77 1407.93 935.31 1466.07 914.16C1516.13 895.95 1546.17 866.89 1581.51 828.36C1513.7 781.45 1429.38 775.84 1373 783.05C1348.18 786.2 1283.72 798.1 1242.71 836.89C1259.38 857.6 1282.34 878.75 1304.59 893.04V893.03ZM1070.06 1028.48C1111.47 1067.12 1163.81 1088.05 1224.49 1077.09C1276.78 1067.62 1311.28 1044.02 1352.67 1011.92C1294.54 953.81 1212.95 933.82 1156.47 931.3C1131.59 930.18 1066.38 930.91 1019.38 962.28C1031.99 985.63 1050.77 1010.52 1070.01 1028.43L1070.06 1028.47V1028.48ZM1550.42 514.64C1592.19 476.64 1608.26 413.85 1613.01 389.59C1623.82 334.46 1623.47 250.97 1580.32 181.19C1539.12 213.59 1507.92 241.39 1486.38 289.59C1461.36 345.58 1469.52 401.04 1497.57 450.11C1511.64 474 1529.46 495.75 1550.42 514.63V514.64ZM1371.11 736.15C1413.39 698.71 1430.36 636.12 1435.46 611.92C1447.08 556.92 1447.92 473.4 1405.8 402.91C1364.22 434.74 1332.57 462.12 1310.36 510.03C1284.55 565.69 1291.9 621.3 1319.23 670.78C1332.94 694.9 1350.43 716.94 1371.11 736.16V736.15ZM1150.13 893.43C1197.84 863.11 1224.86 803.85 1233.88 780.59C1254.37 727.92 1269.04 645.21 1239.36 568.59C1193.28 593.46 1157.69 615.51 1127.94 659.47C1093.39 710.5 1091.38 766.84 1110.02 820.3C1119.5 846.4 1133.01 871.04 1150.13 893.42V893.43ZM1789.52 0C1767.87 12.12 1685.69 51.72 1671.22 182.99C1668.53 207.4 1677.81 268.27 1688.98 285.69C1760.08 280.24 1794.27 211.25 1802.49 195.47C1860.27 84.5 1799.85 7.12 1789.55 0H1789.52Z" fill="url(#paint0_linear_228_60)"/>
</g>
<defs>
<linearGradient id="paint0_linear_228_60" x1="960" y1="0" x2="960" y2="1080" gradientUnits="userSpaceOnUse">
<stop stop-color="#2F57EF" stop-opacity="0.29"/>
<stop offset="1" stop-color="#B966E7" stop-opacity="0.12"/>
</linearGradient>
<clipPath id="clip0_228_60">
<rect width="1920" height="1080" fill="white"/>
</clipPath>
</defs>
</svg>
