<svg width="24" height="24" viewBox="0 0 24 24" fill="none" xmlns="http://www.w3.org/2000/svg">
<path fill-rule="evenodd" clip-rule="evenodd" d="M13.6503 3.6798C12.575 2.72392 10.9545 2.72392 9.8791 3.6798L4.14212 8.77934V18.9414C4.14212 19.8483 4.87734 20.5836 5.78428 20.5836H8.62239L8.62239 14.1571C8.62239 13.0823 9.49368 12.211 10.5685 12.211H12.9606C14.0354 12.211 14.9067 13.0823 14.9067 14.1571L14.9067 20.5836H17.7451C18.652 20.5836 19.3872 19.8483 19.3872 18.9414V8.77926L13.6503 3.6798ZM14.9067 22.0836H17.7451C19.4804 22.0836 20.8872 20.6768 20.8872 18.9414V10.1126L22.0312 11.1294C22.3407 11.4046 22.8148 11.3767 23.09 11.0671C23.3652 10.7575 23.3373 10.2835 23.0277 10.0083L14.6469 2.55869C13.0032 1.09763 10.5263 1.09762 8.88255 2.55869L0.501735 10.0083C0.192148 10.2835 0.164263 10.7575 0.439451 11.0671C0.71464 11.3767 1.18869 11.4046 1.49828 11.1294L2.64212 10.1127V18.9414C2.64212 20.6768 4.04891 22.0836 5.78428 22.0836H8.62239V22.0836H10.1224V22.0836H13.4067V22.0836H14.9067V22.0836ZM13.4067 20.5836L13.4067 14.1571C13.4067 13.9107 13.207 13.711 12.9606 13.711H10.5685C10.3221 13.711 10.1224 13.9107 10.1224 14.1571L10.1224 20.5836H13.4067Z" fill="#606F7B"/>
</svg>
